<svg xmlns="http://www.w3.org/2000/svg" width="102" height="26" fill="none" viewBox="0 0 102 26">
    <path fill="#232323" d="M.275.92h8.68c3.593 0 6.37.7 8.33 2.1 1.983 1.4 2.975 3.36 2.975 5.88 0 1.587-.49 2.975-1.47 4.165-.957 1.19-2.275 2.112-3.955 2.765-1.657.63-3.5.945-5.53.945h-1.47V25H.275V.92zM9.34 11.91c1.237 0 2.193-.257 2.87-.77s1.015-1.26 1.015-2.24c0-.98-.338-1.715-1.015-2.205-.653-.49-1.61-.735-2.87-.735H7.835v5.88c.467.047.968.07 1.505.07zm23.15 13.37c-1.844 0-3.489-.327-4.936-.98-1.423-.653-2.531-1.575-3.324-2.765-.794-1.19-1.19-2.543-1.19-4.06V7.465h7.21v9.905c0 .77.21 1.377.63 1.82.443.42.991.63 1.645.63.63 0 1.143-.21 1.54-.63.42-.443.63-1.05.63-1.82V7.465h7.07v10.01c0 1.54-.397 2.905-1.19 4.095-.77 1.167-1.856 2.077-3.256 2.73-1.4.653-3.01.98-4.83.98zM46.176.92h8.68c3.593 0 6.37.7 8.33 2.1 1.983 1.4 2.975 3.36 2.975 5.88 0 1.587-.49 2.975-1.47 4.165-.957 1.19-2.275 2.112-3.955 2.765-1.657.63-3.5.945-5.53.945h-1.47V25h-7.56V.92zm9.065 10.99c1.237 0 2.193-.257 2.87-.77s1.015-1.26 1.015-2.24c0-.98-.338-1.715-1.015-2.205-.653-.49-1.61-.735-2.87-.735h-1.505v5.88c.467.047.968.07 1.505.07zm21.267 13.37c-1.517 0-2.94-.397-4.27-1.19-1.307-.817-2.357-1.913-3.15-3.29-.793-1.4-1.19-2.952-1.19-4.655 0-1.68.397-3.197 1.19-4.55.793-1.377 1.855-2.45 3.185-3.22s2.742-1.155 4.235-1.155c1.213 0 2.333.338 3.36 1.015 1.05.677 1.843 1.692 2.38 3.045V7.22h7.35V25h-7.35v-3.255c-1.167 2.357-3.08 3.535-5.74 3.535zm2.275-5.53c.933 0 1.726-.327 2.38-.98.677-.677 1.038-1.47 1.085-2.38v-.28c-.047-.933-.42-1.727-1.12-2.38-.677-.653-1.459-.98-2.345-.98-.98 0-1.82.35-2.52 1.05-.677.677-1.015 1.493-1.015 2.45 0 .98.35 1.808 1.05 2.485.7.677 1.528 1.015 2.485 1.015zm18.49 5.46c-1.237 0-2.205-.338-2.905-1.015-.7-.677-1.05-1.528-1.05-2.555 0-1.05.362-1.902 1.085-2.555.723-.653 1.68-.98 2.87-.98 1.167 0 2.112.35 2.835 1.05.723.677 1.085 1.505 1.085 2.485 0 1.097-.338 1.972-1.015 2.625-.677.63-1.645.945-2.905.945z"/>
</svg>
